<?xml version="1.0" encoding="UTF-8" standalone="no"?>
<!-- Uploaded to: SVG Repo, www.svgrepo.com, Generator: SVG Repo Mixer Tools -->

<svg
   fill="#000000"
   width="800px"
   height="800px"
   viewBox="0 0 24 24"
   version="1.1"
   id="svg11295"
   sodipodi:docname="AceInputMap.svg"
   xml:space="preserve"
   inkscape:version="1.2.1 (9c6d41e410, 2022-07-14)"
   xmlns:inkscape="http://www.inkscape.org/namespaces/inkscape"
   xmlns:sodipodi="http://sodipodi.sourceforge.net/DTD/sodipodi-0.dtd"
   xmlns="http://www.w3.org/2000/svg"
   xmlns:svg="http://www.w3.org/2000/svg"><defs
     id="defs11299" /><sodipodi:namedview
     id="namedview11297"
     pagecolor="#ffffff"
     bordercolor="#000000"
     borderopacity="0.25"
     inkscape:showpageshadow="2"
     inkscape:pageopacity="0.0"
     inkscape:pagecheckerboard="0"
     inkscape:deskcolor="#d1d1d1"
     showgrid="false"
     inkscape:zoom="0.295"
     inkscape:cx="-55.932203"
     inkscape:cy="405.08475"
     inkscape:window-width="1920"
     inkscape:window-height="1010"
     inkscape:window-x="-6"
     inkscape:window-y="463"
     inkscape:window-maximized="1"
     inkscape:current-layer="svg11295" /><path
     id="path11293"
     style="fill:#fc7f7f;fill-opacity:1"
     d="M 10.00002 1.9999805 C 8.8954511 1.9999805 7.9999805 2.8954511 7.9999805 4.0000195 L 7.9999805 7.9999805 L 4.0000195 7.9999805 C 2.8954511 7.9999805 1.9999805 8.8954511 1.9999805 10.00002 L 1.9999805 13.99998 C 1.9999805 15.104548 2.8954511 16.00002 4.0000195 16.00002 L 7.9999805 16.00002 L 7.9999805 19.99998 C 7.9999805 21.104548 8.8954511 22.00002 10.00002 22.00002 L 13.99998 22.00002 C 15.104548 22.00002 16.00002 21.104548 16.00002 19.99998 L 16.00002 16.00002 L 19.99998 16.00002 C 21.104548 16.00002 22.00002 15.104548 22.00002 13.99998 L 22.00002 10.00002 C 22.00002 8.8954511 21.104548 7.9999805 19.99998 7.9999805 L 16.00002 7.9999805 L 16.00002 4.0000195 C 16.00002 2.8954511 15.104548 1.9999805 13.99998 1.9999805 L 10.00002 1.9999805 z M 12 4.0000195 L 13.99998 7.0000195 L 10.00002 7.0000195 L 12 4.0000195 z M 11.998125 9.0307617 C 12.145 9.3334177 12.830978 10.387345 13.874414 11.395312 C 14.570351 12.119062 14.652519 13.090763 14.048613 13.685918 C 13.444239 14.272636 12.730938 13.860468 12.328125 13.539375 C 12.328125 13.740781 12.400781 14.373458 12.986719 14.969238 L 11.028281 14.969238 C 11.60484 14.373458 11.67802 13.750312 11.68752 13.539375 C 11.275332 13.860468 10.561406 14.272636 9.9670312 13.685918 C 9.3442199 13.090763 9.4268948 12.128593 10.122363 11.395312 C 11.165799 10.387345 11.851719 9.3334177 11.998125 9.0307617 z M 7.0000195 10.00002 L 7.0000195 13.99998 L 4.0000195 12 L 7.0000195 10.00002 z M 16.99998 10.00002 L 19.99998 12 L 16.99998 13.99998 L 16.99998 10.00002 z M 10.00002 16.99998 L 13.99998 16.99998 L 12 19.99998 L 10.00002 16.99998 z " /></svg>
